<?xml version="1.0" encoding="utf-8"?>
<!-- Generator: Adobe Illustrator 12.0.1, SVG Export Plug-In . SVG Version: 6.00 Build 51448)  -->
<!DOCTYPE svg PUBLIC "-//W3C//DTD SVG 1.1//EN" "http://www.w3.org/Graphics/SVG/1.1/DTD/svg11.dtd" [
	<!ENTITY ns_svg "http://www.w3.org/2000/svg">
	<!ENTITY ns_xlink "http://www.w3.org/1999/xlink">
]>
<svg  version="1.1" id="Layer_1" xmlns="&ns_svg;" xmlns:xlink="&ns_xlink;" width="360.594" height="239.639"
	 viewBox="0 0 360.594 239.639" overflow="visible" enable-background="new 0 0 360.594 239.639" xml:space="preserve">
<g>
	<path fill-rule="evenodd" clip-rule="evenodd" d="M266.016,34.636c-21.149,0.185-34.808-0.008-56.16-1.44
		c-3.566-0.239-6.803-1.556-10.08-1.92c-2.256-0.25-6.578,0.288-10.08,0c-11.868-0.974-30.854-3.148-40.8-7.2
		c-6.076-2.475-12.134-6.964-9.12-14.88c2.656-6.977,18.445-9.702,29.28-9.12c17.839,0.958,31.504,10.918,49.92,15.84
		C237.49,20.864,256.29,24.287,266.016,34.636z"/>
	<path fill-rule="evenodd" clip-rule="evenodd" d="M118.175,58.636c-1.358-0.541-3.08,2.667-5.76,2.4
		c-6.883-9.632-19.637-25.512-35.52-27.36c-2.078-0.242-3.819-0.214-5.76,0c-13.573,1.501-25.98,11.575-24.48,28.8
		c-6.201-4.309-11.98-11.121-22.08-12.96c-2.33-0.424-4.442-0.12-6.72-0.48c-13.866-2.195-22.34-14.801-15.36-30.24
		c12.833-8.45,35.185-2.717,50.4,1.44c26.372,7.205,51.564,20.464,68.16,35.52c-0.046,1.234-1.874,0.687-1.92,1.92
		c1.693-0.066,2.146-1.374,3.84-1.44c10.831,1.149,15.191-3.267,24.48-7.2c10.937-4.631,10.546-17.909,0-23.04
		c9.79,1.89,20.927,2.433,23.04,12c1.965-3.258-1.581-5.13-1.92-7.68c9.875,3.728,25.131,1.758,36.48,4.32
		c3.052,0.689,6.779,2.633,10.08,3.84c10.024,3.665,17.785,9.128,24,16.32c8.346,9.658,14.003,22.726,30.24,26.88
		c-13.411-1.058-25.311-1.515-34.08-7.68c-10.182-7.157-13.3-20.221-20.641-30.24c-5.153,0.625-8.295,0.538-12,2.4
		c-5.75,2.891-7.967,10.408-15.84,8.16c-4.732-1.351-7.466-7.437-16.32-5.76c-3.297,2.943-2.36,10.12-10.08,8.64
		c-3.842,4.206-10.936,11.757-16.8,4.32c0,1.44,0,2.88,0,4.32c-4.047,2.738-9.061,6.981-14.88,3.84
		c-2.389,0.11-2.713,2.887-5.28,3.84c-3.187,1.183-7.365,0.224-10.56,0.48C113.045,68.153,112.287,60.494,118.175,58.636z"/>
	<path fill-rule="evenodd" clip-rule="evenodd" d="M110.016,73.516c-8.459-2.578-16.779,0.86-21.6,6.24
		c-4.055,4.525-4.582,10.16-14.4,9.12c4.754,4.719,12.204,3.454,18.72,5.28c8.318,2.332,16.071,6.65,22.08,10.56
		c0.704,4.936,1.168,11.869-0.48,16.8c-6.047-3.353-8.425-7.732-13.44-12.479c-4.042-3.827-9.32-10.609-13.92-12.48
		c-3.022-1.229-5.302-0.354-8.64-0.96c-8.05-1.462-18.934-6.454-24-11.52c-3.5-3.5-7.943-10.122-8.16-15.84
		c-0.247-6.511,3.281-20.021,5.76-23.52c3.759-5.304,18.92-12.128,27.36-9.6c11.128,3.334,25.716,15.158,30.24,23.04
		C112.159,62.727,113.965,69.987,110.016,73.516z M63.936,69.676c-7.395,10.248,17.273,14.066,9.12,1.44
		C71.04,67.995,66.683,65.868,63.936,69.676z"/>
	<path fill-rule="evenodd" clip-rule="evenodd" d="M214.176,36.076c22.094,1.18,33.495,11.151,45.6,24.48
		c7.312,8.051,12.946,16.509,24.48,19.2c4.38,1.022,9.038,0.469,14.399,2.4c-15.146,5.022-32.223-2.754-41.76-11.04
		C243.442,59.428,234.772,41.161,214.176,36.076z"/>
	<path fill-rule="evenodd" clip-rule="evenodd" d="M229.535,36.556c32.53,2.046,47.099,31.593,81.12,34.56
		c14.934,1.302,31.123-2.458,41.28-8.64c-9.352,9.889-20.187,17.677-36.96,19.2C271.039,85.664,262.812,44.332,229.535,36.556z"/>
	<path fill-rule="evenodd" clip-rule="evenodd" d="M245.376,36.076c6.775,2.283,17.347-0.735,24.479,0.48
		c4.366,0.744,8.382,4.061,12.96,6.24c18.066,8.601,42.042,18.646,69.12,12.48c3.113-0.709,4.684-2.574,8.64-3.84
		c0.296,3.815-3.102,3.938-3.84,6.72c-11.435,6.272-25.979,11.673-41.76,11.04c-30.15-1.208-43.936-25.596-68.64-31.68
		C245.745,37.306,245.35,36.902,245.376,36.076z"/>
	<path fill-rule="evenodd" clip-rule="evenodd" d="M224.256,66.316c-7.258-0.856-13.599-11.536-11.521-20.16
		c0.979-0.964,0.941,0.212,1.92,0.48C215.952,55.1,222.266,58.546,224.256,66.316z"/>
	<path fill-rule="evenodd" clip-rule="evenodd" d="M199.775,62.476c0.957-3.169,3.093-6.478,0.96-10.08
		c1.773-3.506,4.354-6.206,9.601-6.24c0.233,12.406,5.209,20.071,14.88,23.04C218.201,76.764,203.932,68.295,199.775,62.476z"/>
	<path fill-rule="evenodd" clip-rule="evenodd" d="M198.815,52.396c3.358,15.914-27.916,10.96-27.36-1.92
		c7.245-1.56,11.941,6.023,19.2,5.28C194.213,55.392,194.819,53.049,198.815,52.396z"/>
	<path fill-rule="evenodd" clip-rule="evenodd" d="M196.415,62.476c-3.054,20.083-25.298,4.002-26.399-7.68
		c2.502-0.313,2.588,2.689,4.32,4.32C179.312,63.802,189.348,66.079,196.415,62.476z"/>
	<path fill-rule="evenodd" clip-rule="evenodd" d="M182.496,73.516c-0.023,3.399-1.879,5.232-3.84,5.76
		c-11.162,3.006-12.904-13.442-17.28-18.72c0.742-2.778,4.993-2.047,5.76-4.8C172.86,61.072,174.957,70.015,182.496,73.516z"/>
	<path fill-rule="evenodd" clip-rule="evenodd" d="M149.375,66.316c4.764,0.284,6.293-2.667,8.64-4.8
		c3.139,4.338,11.459,9.932,9.6,17.28c-0.732,2.895-3.202,4.202-6.72,3.84c-4.875-0.501-4.14-4.208-6.24-8.64
		C153.059,70.627,149.093,69.567,149.375,66.316z"/>
	<path fill-rule="evenodd" clip-rule="evenodd" d="M230.976,73.516c5.907,6.545-5.121,13.27-14.88,11.52
		c-8.985-1.612-18.797-12.291-16.8-20.64C207.224,71.187,217.165,77.787,230.976,73.516z"/>
	<path fill-rule="evenodd" clip-rule="evenodd" d="M154.655,83.116c-3.261,2.922-11.869,2.283-14.88-0.48
		c0.435-5.555-2.898-7.342-4.32-11.04c5.573,0.454,6.432-3.808,10.56-4.8C148.725,72.251,156.211,74.933,154.655,83.116z"/>
	<path fill-rule="evenodd" clip-rule="evenodd" d="M196.896,67.756c2.16,12.344,17.724,24.15,31.68,17.28
		c2.7-1.33,3.423-3.397,6.24-5.28c5.399,7.931-5.312,13.548-12,14.4c-14.575,1.856-27.979-12.043-27.36-24.48
		C196.443,69.544,195.907,67.888,196.896,67.756z"/>
	<path fill-rule="evenodd" clip-rule="evenodd" d="M73.536,76.876c-3.858,4.915-13.297-1.873-8.16-7.2
		c1.686-0.085,1.579,1.622,2.88,1.92c-0.063-1.183-0.073-2.312,0.48-2.88C72.821,68.951,73.827,72.264,73.536,76.876z"/>
	<path fill-rule="evenodd" clip-rule="evenodd" d="M139.295,88.396c-5.673-0.014-9.345,4.026-13.92,3.36
		c-6.115-0.891-8.415-9.485-10.56-15.36c8.834,0.321,13.247-7.464,20.16-2.4C137.118,77.865,140.427,82.818,139.295,88.396z"/>
	<path fill-rule="evenodd" clip-rule="evenodd" d="M193.056,72.076c2.48,12.972,13.309,26.748,30.24,23.52
		c2.207-0.42,2.558-2.447,4.8-1.92c1.685,15.655-22.03,12.82-30.72,5.28c-7.138-6.193-9.462-16.378-11.521-24
		C188.146,74.815,191.317,74.051,193.056,72.076z"/>
	<path fill-rule="evenodd" clip-rule="evenodd" d="M112.896,76.876c3.942,13.487,20.367,25.504,12.96,41.28
		c-5.907-12.996-17.584-20.828-33.12-25.44c-3.916-1.162-10.379,1.18-13.44-2.88c7.834,1.09,11.472-11.635,16.32-12.48
		c6.791-1.183,8.915,8.684,14.88,11.04c-2.604-4.437-6.018-8.063-9.6-11.52C102.847,72.662,110.011,75.229,112.896,76.876z"/>
	<path fill-rule="evenodd" clip-rule="evenodd" d="M184.896,76.876c1.443,13.449,10.704,28.316,24.48,29.76
		c3.112,0.327,6.97-1.909,10.079,0.48c-0.095,5.614-7.22,6.661-11.04,7.68c-5.549,1.481-12.275-3.417-16.319-6.72
		c-7.119-5.813-6.324-14.32-11.52-21.12c-1.884-2.465-6.101-3.312-6.72-6.24C178.603,82.072,181.8,78.671,184.896,76.876z"/>
	<path fill-rule="evenodd" clip-rule="evenodd" d="M170.016,79.756c1.986-0.227,1.275,2.245,1.92,3.36
		c2.637,3.644,9.836,3.178,8.64,9.6c-0.519,2.784-4.103,4.522-7.2,4.32c-5.806-0.378-9.023-8.565-10.08-13.44
		C166.339,84.113,168.478,82.05,170.016,79.756z"/>
	<path fill-rule="evenodd" clip-rule="evenodd" d="M164.255,97.036c-2.459,1.271-6.494,2.813-9.6,1.92
		c-1.7-3.1-0.932-8.668-1.92-12.48C157.173,78.072,165.788,89.552,164.255,97.036z"/>
	<path fill-rule="evenodd" clip-rule="evenodd" d="M149.855,85.996c4.037,2.029,1.764,9.144,3.84,15.36
		c1.345,4.027,9.193,10.916,2.88,12.96c-5.673,1.837-8.824-6.377-12-8.64C147.473,96.27,131.992,83.708,149.855,85.996z"/>
	<path fill-rule="evenodd" clip-rule="evenodd" d="M142.175,108.076c-1.671-3.957-7.979-4.354-9.6,0
		c-4.097-3.423-4.943-10.097-6.72-15.84c1.194-0.074,1.486,0.754,2.4,0.96C138.735,84.492,146.794,97.365,142.175,108.076z"/>
	<path fill-rule="evenodd" clip-rule="evenodd" d="M181.536,94.636c0.558-0.078,0.854,0.106,0.96,0.48
		c0.969,11.351,12.003,12.637,15.84,21.12c-1.466,0.89-3.381,1.164-4.801,0c-1.582,1.138-1.862,3.577-3.84,4.32
		c-2.83-0.05-4.894-0.865-7.2-1.44c-1.022-9.537-6.597-14.522-10.56-21.12C175.653,99.917,180.639,98.314,181.536,94.636z"/>
	<path fill-rule="evenodd" clip-rule="evenodd" d="M165.215,95.116c6.551,6.053,16.364,13.547,13.92,25.44
		c-5.283,2.371-9.828-2.07-12-5.76C169.388,107.817,167.223,100.609,165.215,95.116z"/>
	<path fill-rule="evenodd" clip-rule="evenodd" d="M156.096,100.396c2.563-0.428,7.072-1.095,8.64-0.96
		c1.435,2.888,2.983,8.298,0.48,11.04C159.626,111.358,156.783,105.953,156.096,100.396z"/>
	<path fill-rule="evenodd" clip-rule="evenodd" fill="#FFFFFF" d="M231.936,147.436c0.021,2.262-1.388,3.093-2.4,4.32
		c-8.09-2.187-13.381,4.231-19.68-1.44c-3.591,1.139-8.2,4.742-12,1.44c1.224-4.376,7.732-3.468,10.08-6.72
		c3.704,1.415,6.129,4.11,12,3.359C222.176,142.257,226.268,146.982,231.936,147.436z"/>
	<path fill-rule="evenodd" clip-rule="evenodd" fill="#FFFFFF" d="M174.335,232.876c1.678,3.63-7.929,6.723-12.48,4.32
		C166.098,235.762,173.938,235.264,174.335,232.876z"/>
	<path fill-rule="evenodd" clip-rule="evenodd" fill="#FFFFFF" d="M73.056,71.116c8.153,12.626-16.515,8.808-9.12-1.44
		C66.683,65.868,71.04,67.995,73.056,71.116z M68.735,68.716c-0.553,0.567-0.543,1.697-0.48,2.88
		c-1.301-0.298-1.194-2.005-2.88-1.92c-5.137,5.327,4.302,12.115,8.16,7.2C73.827,72.264,72.821,68.951,68.735,68.716z"/>
	<path fill-rule="evenodd" clip-rule="evenodd" d="M110.976,145.516c8.674,0.969,13.715,4.086,24.48,7.681
		c8.751,2.922,18.989,5.34,22.08,11.04c1.172,2.161,0.979,5.583,1.92,8.64c1.924,6.253,4.434,9.479,0.96,16.32
		c-4.982,4.491-12.926,1.656-18.24,4.319c-3.773,1.892-5.174,8.292-7.2,12c-2.521,4.615-4.894,8.68-6.24,12.96
		c5.421,0.745,9.907-5.649,14.88-0.479c-12.932,2.196-23.652,6.97-36.96,7.68c2.18-3.526,7.559-0.963,10.56-3.36
		c-3.696-1.802-8.129,0.925-12.48,0.48c-3.8-0.389-7.382-3.834-11.04-1.92c0.34-2.38,3.182-2.259,5.28-2.88
		c2.888,3.402,13.363,1.595,16.32,0.96c-1.672-1.44-8.334-0.986-10.08-3.84c-2.806-0.409-3.446,2.269-5.76,0.96
		c1.888-1.632,4.405-2.635,7.2-3.36c2.672,2.136,5.578,2.614,11.04,2.88c1.915,0.093,6.23,0.311,5.76,0.48
		c2.612-0.941,8.851-13.958,10.08-16.8c5.516-12.761-0.146-31.283-7.68-39.36C120.644,154.328,113.193,153.184,110.976,145.516z"/>
	<path fill-rule="evenodd" clip-rule="evenodd" d="M49.536,81.196c8.744,7.086,17.375,14.694,30.24,16.32
		c10.604,1.34,14.556,8.796,21.12,15.36c4.498,4.498,9.258,8.172,12.96,12c4.261-1.86,3.826-8.608,3.36-13.92
		c4.117,0.25,4.722,8.044,8.16,10.56c6.23-2.57,4.046-13.553,12.96-13.44c1.483,1.557,3.61,2.47,4.32,4.8
		c2.19-0.05,1.958-2.522,3.84-2.88c2.598,4.535,7.916,7.453,13.44,5.28c1.679-0.721,1.444-3.355,3.84-3.36
		c2.466,5.694,5.666,10.654,12,12.479c3.468-3.795,9.615-2.633,14.4-0.479c1.328-1.231,1.987-3.133,2.88-4.8
		c2.369,0.817,4.064-0.332,7.2,0c3.591,3.289,7.638,6.123,11.04,9.6c13.82,5.379,25.782,12.617,34.56,23.04
		c16.656,0.814,29.407,10.317,39.36,19.2c5.535,4.94,16.065,8.708,15.359,17.28c-0.603,7.319-12.53,14.745-21.12,11.04
		c-8.987-3.877-7.643-21.805-19.68-20.16c-3.991,9.3,7.318,11.104,8.64,18.239c-20.717,8.659-18.771-18.8-33.6-22.079
		c-0.334,9.269,14.441,12.253,10.561,23.52c-2.716,0.97-2.385-1.791-3.841-1.92c-1.863-0.165-2.658,2.251-5.279,1.92
		c-8.829-1.116-2.301-14.073-7.681-19.68c-6.218,2.501,0.985,13.289-3.84,17.279c-2.295,0.217-2.025,0.217-4.32,0
		c-1.455-1.741-0.359-3.889-0.96-5.76c-2.66,0.38-2.401,3.679-4.319,4.8c-3.13,0.224-4.528,0.406-7.2-0.479
		c3.407-10.833,9.767-18.714,14.88-27.84c-3.171-2.262-4.657,2.189-6.72,3.84c0.026,1.573,1.365,1.835,0.96,3.84
		c-4.634,7.526-8.641,15.68-12.96,23.52c-13.707,4.854-17.225,19.896-23.04,32.641c4.099,2.008,7.004-3.865,11.52-1.44
		c1.296-3.854,11.782-6.612,11.04-0.479c-2.215,0.455-1.102-2.419-3.359-1.92c-3.178,0.502-4.428,2.933-5.761,5.279
		c-4.15-2.287-6.753,0.772-10.56,1.44c-4.763,0.836-7.938-0.554-9.6,4.32c-5.784,3.167-10.383,0.057-15.36,1.439
		c-0.002-1.762,1.681-1.839,2.4-2.88c-5.566,0.972-13.014-0.269-16.8,0.48c-0.529-2.969,4.57-3.959,5.28-1.44
		c6.179-2.94,17.425-0.815,23.04-4.32c-6.343,0.974-16.068-1.812-20.64-0.96c0.588-4.112,4.563-1.65,7.2-1.439
		c5.527,0.44,12.386-0.395,16.8-0.96c6.787-11.569,20.308-32.538,11.52-49.44c-2.144,4.143-1.085,8.065-0.479,13.44
		c-9.308-0.133-7.131-11.749-10.081-18.24c-4.89,5.579,0.84,12.748,2.88,17.28c-3.861-0.727-10.585-0.129-12.96-3.84
		c-0.683-1.066-0.45-2.613-0.96-3.841c-0.503-1.212-1.778-2.418-2.4-3.84c-4.653-10.636-2.766-19.364-13.44-24
		c-5.697-2.474-15.071-3.807-23.04-6.72c-5.479-2.004-10.052-5.281-13.44-5.76c-2.527-0.357-4.183,0.614-6.24,0
		c-3.695-1.104-4.586-5.093-7.68-7.681c-1.65,0.21-2.69-0.189-3.84-0.479c-12.103-8.698-25.904-15.696-33.12-29.28
		C55.142,100.87,50.5,92.871,49.536,81.196z M219.936,148.396c-5.871,0.751-8.296-1.944-12-3.359
		c-2.348,3.252-8.856,2.344-10.08,6.72c3.8,3.302,8.409-0.302,12-1.44c6.299,5.672,11.59-0.746,19.68,1.44
		c1.013-1.228,2.422-2.059,2.4-4.32C226.268,146.982,222.176,142.257,219.936,148.396z M161.855,237.196
		c4.551,2.402,14.158-0.69,12.48-4.32C173.938,235.264,166.098,235.762,161.855,237.196z"/>
</g>
</svg>
