<?xml version="1.0" encoding="UTF-8" standalone="no"?>
<!-- Created with Sodipodi ("http://www.sodipodi.com/") -->
<svg
   xmlns:dc="http://purl.org/dc/elements/1.1/"
   xmlns:cc="http://creativecommons.org/ns#"
   xmlns:rdf="http://www.w3.org/1999/02/22-rdf-syntax-ns#"
   xmlns:svg="http://www.w3.org/2000/svg"
   xmlns="http://www.w3.org/2000/svg"
   xmlns:sodipodi="http://sodipodi.sourceforge.net/DTD/sodipodi-0.dtd"
   xmlns:inkscape="http://www.inkscape.org/namespaces/inkscape"
   height="466.51163"
   id="svg607"
   sodipodi:docbase="/home/kesigomu/Corvina"
   sodipodi:docname="crow_01.svg"
   sodipodi:version="0.32"
   space="preserve"
   width="377.1535"
   inkscape:version="0.45+devel"
   inkscape:output_extension="org.inkscape.output.svg.inkscape"
   version="1.0"
   inkscape:export-filename="/Users/johnolsen/Pictures/by author build/assorted authors/crow_01.png"
   inkscape:export-xdpi="150"
   inkscape:export-ydpi="150">
  <metadata
     id="metadata3">
    <rdf:RDF>
      <cc:Work
         rdf:about="">
        <dc:title>crow</dc:title>
        <dc:description>crow</dc:description>
        <dc:subject>
          <rdf:Bag>
            <rdf:li />
            <rdf:li>animal</rdf:li>
            <rdf:li>silhouette</rdf:li>
            <rdf:li>bird</rdf:li>
          </rdf:Bag>
        </dc:subject>
        <dc:publisher>
          <cc:Agent
             rdf:about="http://www.openclipart.org">
            <dc:title>kesigomu</dc:title>
          </cc:Agent>
        </dc:publisher>
        <dc:creator>
          <cc:Agent>
            <dc:title>kesigomu</dc:title>
          </cc:Agent>
        </dc:creator>
        <dc:rights>
          <cc:Agent>
            <dc:title>kesigomu</dc:title>
          </cc:Agent>
        </dc:rights>
        <dc:date />
        <dc:format>image/svg+xml</dc:format>
        <dc:type
           rdf:resource="http://purl.org/dc/dcmitype/StillImage" />
        <cc:license
           rdf:resource="http://web.resource.org/cc/PublicDomain" />
        <dc:language>en</dc:language>
      </cc:Work>
      <cc:License
         rdf:about="http://web.resource.org/cc/PublicDomain">
        <cc:permits
           rdf:resource="http://web.resource.org/cc/Reproduction" />
        <cc:permits
           rdf:resource="http://web.resource.org/cc/Distribution" />
        <cc:permits
           rdf:resource="http://web.resource.org/cc/DerivativeWorks" />
      </cc:License>
    </rdf:RDF>
  </metadata>
  <defs
     id="defs609" />
  <sodipodi:namedview
     id="base"
     showgrid="false" />
  <path
     d="M 57.961805,23.615275 C 59.884705,15.787315 71.278705,9.4024147 80.236205,8.9057147 C 81.467205,8.5576147 85.411305,6.4773147 88.641705,5.5436147 C 108.51401,-2.9682853 124.68761,1.8841147 127.52311,3.1406147 C 130.35871,4.5456147 139.12971,10.115515 144.83521,14.343715 C 154.10661,19.166345 156.95531,26.740045 160.41081,30.093465 C 167.13501,38.498955 175.00591,44.017755 185.30441,52.639555 C 196.49451,61.112655 204.86641,76.985455 206.02081,80.301055 C 208.66121,81.536455 212.27831,84.889855 220.65831,87.594355 C 251.92091,91.487455 279.37261,142.41105 289.76941,177.45975 C 296.89951,184.95435 295.16421,206.82675 298.54371,211.81905 C 303.08531,218.74745 311.35641,270.58265 316.00921,276.19915 C 317.29111,278.51685 316.36851,286.76445 319.00221,293.72755 C 320.42551,297.49045 327.13261,321.81955 330.63861,328.22095 C 335.81491,337.72355 340.59891,361.33805 346.12471,369.01175 C 362.96981,392.61115 366.45871,410.38055 370.89091,417.13915 C 371.60831,418.69705 369.67671,421.73235 368.02101,419.35915 C 366.65511,417.62565 366.65211,417.14805 365.81161,417.77845 C 364.13051,419.35455 362.92221,420.40525 363.65761,422.92695 C 365.75891,426.28905 363.34251,428.33785 365.91661,431.96275 C 368.85851,436.79595 374.32191,450.13945 376.52851,456.07585 C 376.05571,464.27115 374.58471,467.31805 364.91841,465.26925 C 360.19041,464.16605 357.19591,459.85835 355.09461,454.39475 C 353.41351,451.97825 349.10561,452.71375 347.10941,453.97445 C 336.91781,470.31255 302.40281,464.79655 294.73291,456.07585 C 287.22361,447.08965 265.96821,410.97145 261.71751,404.60295 C 253.46941,401.89055 239.12481,384.66355 236.99791,374.54295 C 236.65411,372.74315 233.97081,372.99815 233.21551,373.70245 C 229.78561,383.61925 229.95091,387.52475 232.79521,390.09305 C 235.34241,395.48445 231.18621,399.90785 225.65061,399.75935 C 204.36441,398.27345 189.38841,400.45145 187.46551,399.93345 C 186.43421,398.67265 175.93541,399.91225 177.44231,395.03875 C 178.50361,392.98835 182.36251,389.25245 185.30441,386.31055 C 186.46321,385.00305 188.89171,385.04975 191.60851,385.04975 C 195.81121,385.04975 196.57531,385.19835 200.20921,384.75255 C 201.76281,384.15815 202.48021,383.16465 207.55331,382.33295 C 209.65471,376.44915 219.02391,370.21705 220.70491,368.11585 C 223.12901,366.16305 222.36491,364.85125 223.76991,362.74985 C 224.43201,360.20275 224.19011,358.49615 222.46241,357.04015 C 210.63071,349.34335 193.62541,344.61045 186.00521,339.71145 C 179.42501,337.04115 174.62351,337.26615 173.51131,339.48615 C 169.72441,347.20405 165.22891,350.29915 163.91711,352.14545 C 161.71371,355.47775 159.46821,357.16315 157.98671,357.31175 C 155.46501,357.31175 150.44731,365.22485 145.79881,372.86185 C 142.33901,378.41865 144.53801,387.91515 147.47991,388.41195 C 148.78731,387.86865 149.50481,386.70535 154.62451,389.25245 C 155.88101,390.90805 156.64941,392.36845 157.98671,394.71605 C 157.83811,396.76635 156.99751,398.91875 152.05191,399.31355 C 147.10621,399.41115 142.40671,399.53425 140.33521,398.91875 C 135.29201,396.81745 131.08921,398.07825 128.98791,398.91875 C 112.91911,398.71925 102.09041,399.75935 98.728305,398.91875 C 94.623105,397.63245 96.601305,394.91565 102.56161,392.78865 C 104.51011,392.29635 108.41561,391.55345 113.78161,391.10765 C 118.40451,390.36465 120.70111,387.82185 121.74131,384.38325 C 125.01021,374.85245 134.40031,370.31475 137.34241,366.16305 C 139.54131,363.34855 143.55321,358.64465 144.63551,354.62045 C 148.24401,351.19065 147.74711,345.09405 144.95821,340.92115 C 140.98061,335.55955 139.01901,326.75065 134.82071,322.30615 C 113.23741,298.69345 105.17741,280.72095 98.759005,272.35505 C 91.760805,267.42905 83.772405,248.26205 78.811605,226.00655 C 77.153305,218.61635 71.133105,212.75315 63.828805,179.46955 C 59.919005,163.42265 53.627205,143.81405 63.005105,122.37935 C 66.885205,116.99235 66.311905,109.08795 69.729505,99.264355 C 69.729505,94.641355 68.218005,88.957155 70.990305,85.815655 C 70.939305,83.714355 71.015705,82.253855 68.371105,80.797855 C 65.280605,78.747455 64.613905,76.395655 64.516405,73.509055 C 60.258405,69.582355 63.820105,68.092155 59.222605,65.222355 C 54.179405,63.541155 50.817205,62.280455 49.556305,59.758755 C 47.255405,59.020155 44.572005,58.769655 36.489305,57.903655 C 25.286105,56.294555 8.8198052,53.679755 3.3264052,50.512755 C 0.80470524,48.831655 -0.82539476,48.534355 2.4858052,45.223255 C 12.186505,35.968555 27.901005,30.789805 44.092805,27.817995 C 46.614505,27.817995 48.418605,27.049565 49.556305,26.136935 C 53.517305,24.035575 57.541505,23.615275 57.961805,23.615275 z"
     id="path626"
     sodipodi:nodetypes="ccccccccccscsssccccccccccccccccccccccccccccccccccccccccccccscccccccccccccc"
     style="fill:#000000;fill-opacity:1;fill-rule:evenodd;stroke:#ff0000;stroke-width:1pt;stroke-linecap:butt;stroke-linejoin:miter;stroke-opacity:1" />
</svg>
